<svg xmlns="http://www.w3.org/2000/svg" viewBox="0 0 24 24" fill="#3B82F6">
  <path d="M23.977 6.416c-.105 2.338-1.739 5.543-4.894 9.609-3.268 4.247-6.026 6.37-8.29 6.37-1.409 0-2.578-1.294-3.553-3.881L5.322 11.4C4.603 8.816 3.834 7.522 3.01 7.522c-.179 0-.806.378-1.881 1.132L0 7.197a315.065 315.065 0 0 0 4.192-3.729C5.978 2.4 7.333 1.718 8.222 1.718c2.104 0 3.391 1.262 3.864 3.783.508 2.727.861 4.428 1.061 5.101.599 2.777 1.259 4.215 2.262 4.215.906 0 2.108-.929 3.609-2.787 1.502-1.858 2.313-3.27 2.313-4.234 0-1.928-.755-2.893-2.313-2.893-.824 0-1.67.187-2.537.562 1.686-5.512 4.956-8.197 9.808-8.197 3.635 0 5.542 2.194 5.689 6.148z"/>
</svg>